<?xml version="1.0" encoding="UTF-8"?><svg xmlns="http://www.w3.org/2000/svg" xmlns:xlink="http://www.w3.org/1999/xlink" viewBox="0 0 1714.63 437.39"><defs><style>.cls-1{fill:url(#linear-gradient-8);}.cls-2{fill:url(#linear-gradient-7);}.cls-3{fill:url(#linear-gradient-5);}.cls-4{fill:url(#linear-gradient-6);}.cls-5{fill:url(#linear-gradient-4);}.cls-6{fill:url(#linear-gradient-3);}.cls-7{fill:url(#linear-gradient-2);}.cls-8{mix-blend-mode:color-burn;opacity:.4;}.cls-9{fill:url(#linear-gradient);}.cls-10{isolation:isolate;}.cls-11{fill:#fff;}.cls-12{fill:#ef091f;}.cls-13{opacity:.9;}.cls-14{fill:#09358e;}.cls-15{fill:#507de5;}</style><linearGradient id="linear-gradient" x1="230.52" y1="127.33" x2="226.89" y2="148.46" gradientUnits="userSpaceOnUse"><stop offset="0" stop-color="#09358e"/><stop offset=".13" stop-color="#083287"/><stop offset=".32" stop-color="#072b74"/><stop offset=".54" stop-color="#052056"/><stop offset=".78" stop-color="#02102c"/><stop offset="1" stop-color="#000"/></linearGradient><linearGradient id="linear-gradient-2" x1="243.81" y1="76.24" x2="208.94" y2="135.59" gradientUnits="userSpaceOnUse"><stop offset="0" stop-color="#507de5"/><stop offset=".1" stop-color="#4d79de"/><stop offset=".23" stop-color="#476fcb"/><stop offset=".39" stop-color="#3c5ead"/><stop offset=".57" stop-color="#2d4782"/><stop offset=".76" stop-color="#1a294c"/><stop offset=".97" stop-color="#03060b"/><stop offset="1" stop-color="#000"/></linearGradient><linearGradient id="linear-gradient-3" x1="355.98" y1="21.54" x2="591.94" y2="257.5" gradientUnits="userSpaceOnUse"><stop offset="0" stop-color="#004289"/><stop offset=".3" stop-color="#6eacff"/><stop offset=".52" stop-color="#507de5"/><stop offset=".72" stop-color="#6eacff"/><stop offset=".76" stop-color="#5790dc"/><stop offset=".84" stop-color="#3262a4"/><stop offset=".91" stop-color="#16417a"/><stop offset=".97" stop-color="#062c61"/><stop offset="1" stop-color="#002558"/></linearGradient><linearGradient id="linear-gradient-4" x1="332.72" y1="431.42" x2="640.85" y2="123.29" gradientUnits="userSpaceOnUse"><stop offset="0" stop-color="#002558"/><stop offset=".03" stop-color="#062c61"/><stop offset=".09" stop-color="#16417a"/><stop offset=".16" stop-color="#3262a4"/><stop offset=".24" stop-color="#5790dc"/><stop offset=".28" stop-color="#6eacff"/><stop offset=".48" stop-color="#507de5"/><stop offset=".7" stop-color="#6eacff"/><stop offset="1" stop-color="#004289"/></linearGradient><linearGradient id="linear-gradient-5" x1="360.93" y1="126.93" x2="673.55" y2="-83.93" xlink:href="#linear-gradient-4"/><linearGradient id="linear-gradient-6" x1="306.67" y1="117.87" x2="705.89" y2="117.87" xlink:href="#linear-gradient-3"/><linearGradient id="linear-gradient-7" x1="313.09" y1="27.85" x2="668.99" y2="27.85" xlink:href="#linear-gradient-4"/><linearGradient id="linear-gradient-8" x1="306.75" y1="249.64" x2="669.06" y2="249.64" xlink:href="#linear-gradient-4"/></defs><g class="cls-10"><g id="Layer_1"><path class="cls-9" d="M287.21,178.52c-20.73,11.82-51.57,33.77-120.2-18.32l.15-16.17V48.69c.12.14.19.25.19.32t0,.04s.01.09.01.13c-.04.16-.04.3,0,.39v.34c0,.41.01.8.03,1.21,0,.4.04.81.08,1.2.07,1,.2,2,.39,3,.04.29.1.59.17.88.06.3.12.57.19.86.07.28.13.57.23.87.21.82.44,1.64.73,2.47.1.35.23.7.36,1.06.27.7.54,1.41.85,2.11-.01.02,0,.02.02.04.14.38.31.75.49,1.1.16.39.34.77.54,1.14.35.74.76,1.49,1.18,2.25.19.38.42.75.64,1.12.21.37.44.75.68,1.12.22.37.46.74.7,1.12.24.37.49.74.74,1.11.75,1.12,1.55,2.24,2.4,3.34.28.39.58.76.86,1.11.61.79,1.23,1.55,1.89,2.3.27.35.56.68.86,1,2.81,3.23,5.98,6.43,9.4,9.55.39.37.8.72,1.19,1.07,2.41,2.16,4.94,4.28,7.57,6.36.43.35.88.68,1.32,1.04.91.7,1.83,1.41,2.76,2.11.89.67,1.78,1.34,2.68,1.98.49.36.96.71,1.43,1.04.93.67,1.85,1.34,2.8,1.98,6.19,4.34,12.71,8.49,19.31,12.39.91.55,1.83,1.1,2.76,1.65,1.11.65,2.23,1.3,3.33,1.92.51.3,1.02.57,1.53.87.9.51,1.79,1.02,2.68,1.51,1.15.64,2.29,1.27,3.43,1.88,1.64.9,3.28,1.78,4.9,2.64.38.2.77.4,1.15.59,1.01.53,2,1.06,3,1.57.49.26.99.51,1.47.77,1.3.66,2.58,1.31,3.85,1.96.96.49,1.92.96,2.87,1.43,1.17.59,2.31,1.15,3.44,1.68.47.24.94.47,1.4.69.72.35,1.43.71,2.13,1.04.46.21.91.43,1.35.65,2.04.96,4.03,1.9,5.96,2.78.43.2.87.41,1.28.61.62.27,1.22.55,1.81.82.82.37,1.63.75,2.43,1.1,1.19.55,2.35,1.06,3.48,1.57.38.15.76.33,1.12.49,2.11.92,4.08,1.78,5.91,2.57.01,0,.03.01.05.02s.04.01.06.02c.77.25,4.92,1.49,5.94,1.83.03.01.06.02.09.03.06.02.1.03.12.04.02.01.09.03.2.06.07.03.16.05.27.08.1.03.22.07.35.1.04.01.08.03.12.03.1.03.2.06.3.09.23.07.48.14.74.21.16.05.33.1.5.14.51.15,1.04.3,1.53.44.43.91.87,1.82,1.32,2.72-3.02,5-13.76,14.5-13.44,17.58.25,2.43-2.4,4.11-2.07,6.5Z"/><path class="cls-11" d="M272.91,317.76c-55.2-.16-101.99-8.32-154.8-23.27C68.34,280.39,6.06,257.97,0,199.25,0,140.09,0,80.93,0,21.76c21.22,58.52,96.1,84.82,149.52,106.91,21.91,9.06,44.58,19.03,67.79,24.17,27.8,6.15,56.08,2.1,83.99-1.08,26.01,55.94,17.64,122.34-28.39,166.01Z"/><path class="cls-12" d="M315.74,233.51c-58.69-2.21-106.55-14.47-161.74-32.87,4.22-21.67,8.49-43.33,12.88-64.96-11.66-4.56-23.22-9.36-34.7-14.35-4.4,22.33-8.46,44.71-12.39,67.12C77.1,172.08,14.16,156.75,0,107.18v29.35c11.13,51.12,70.37,69.64,113.89,85.9-3.92,22.41-7.97,44.78-12.37,67.1,11.02,3.36,22.02,6.45,33.15,9.4,4.38-21.63,8.64-43.28,12.86-64.94,22.81,7.29,45.25,16.34,68.3,22.79,29.32,8.2,59.64,10.14,89.91,11.97,4.75-11.29,8.17-23.13,10.01-35.24Z"/><path class="cls-14" d="M0,52.33C0,66.99,0,81.64,0,96.3c4.66,26.36,31,41.37,52.34,52.84C26.03,120.48,6.76,91.19,0,52.33Z"/><path class="cls-14" d="M24.07,59.01c23.93,40.27,57.14,70.55,87.9,105.22,2.78-16.01,5.66-32.01,8.88-47.94-34.65-15.47-67.82-32.43-96.78-57.28Z"/><path class="cls-12" d="M92.18,164.69C48.95,122.81,10.52,83.6,0,21.76v21.23c7.95,45.98,33.2,79.62,65.55,111.93,8.66,3.7,17.66,6.9,26.63,9.77Z"/><path class="cls-12" d="M175.69,254.57c31.81,30.5,52.18,54.46,97.22,63.19,2.58-2.41,3.92-3.78,6.63-6.83-32.87-8.51-54.09-23.14-77.86-46.85-9.74-3.24-16.45-6.54-25.99-9.52Z"/><path class="cls-14" d="M0,178.67c0-10.9,0-21.8,0-32.71,5.39,28.21,21.83,43.02,45.3,58.1C29.03,201.78,3.15,199.35,0,178.67Z"/><path class="cls-14" d="M99.45,238.17c-2.75,15.92-5.67,31.82-8.83,47.66-29.31-10.31-57.23-24.77-77.81-48.4,27.79,9.39,58.44,5.85,86.64.74Z"/><path class="cls-12" d="M82.45,221.65c-18.99,2.03-79.84,8.21-82.45-22.4,0,11.95,1.41,17.22,5.87,26.69,26.42,17.2,65.68,11,94.75,5.98.16-.92.24-1.38.39-2.3-7.37-2.95-11.07-4.52-18.57-7.97Z"/><path class="cls-14" d="M311.7,176.45c3.82,15.1,5.52,28.79,5.36,44.35-29.92-.7-60.05-1.41-89.32-8.28,29.68-8.5,56.85-21.44,83.97-36.07Z"/><path class="cls-14" d="M259.31,155.85c-27.82,20.71-56.6,23-89.68,29.54,3.04-15.06,6.09-30.12,9.16-45.17,27.24,10,51.36,16.42,80.52,15.64Z"/><path class="cls-12" d="M301.3,151.75c-9.53,1.13-19.07,2.22-28.63,3.09-32.87,25.84-64.49,28.89-104.16,36.73-.15.74-.22,1.11-.37,1.86,8.07,2.65,10.34,2.85,20.69,6.71,44-4.05,78.17-21.02,112.47-48.38Z"/><path class="cls-14" d="M282.81,307.29c7.27-8.67,12.73-18.19,18.21-28.03-29.56-1.76-59.37-3.5-88-11.63,20.55,20.25,42.09,31.79,69.79,39.66Z"/><path class="cls-14" d="M221.26,316.97c-26.24-1.87-49.79-8.31-75.14-15.05,3.06-14.97,6.09-29.94,9.11-44.92,19.76,19.4,40.6,47.78,66.03,59.97Z"/><path class="cls-7" d="M299.54,49.86c-11.44,31.77-12.73,70.62,1.86,101.86-.49-.14-1.02-.29-1.53-.44-.17-.04-.34-.09-.5-.14-.26-.07-.51-.14-.74-.21-.1-.03-.2-.06-.3-.09-.04,0-.08-.02-.12-.03-.13-.03-.25-.07-.35-.1-.11-.03-.2-.05-.27-.08-.11-.03-.18-.05-.2-.06-.02-.01-.06-.02-.12-.04-.03-.01-.06-.02-.09-.03-2.57-.73-4.97-1.41-5.08-1.46-.27-.12-.57-.25-.86-.37-.02,0-.04,0-.06-.02s-.04-.02-.05-.02c-1.83-.79-3.8-1.65-5.91-2.57-.36-.16-.74-.34-1.12-.49-1.13-.51-2.29-1.02-3.48-1.57-.8-.35-1.61-.73-2.43-1.1-.59-.27-1.19-.55-1.81-.82-.41-.2-.85-.41-1.28-.61-1.93-.88-3.92-1.82-5.96-2.78-.44-.22-.89-.44-1.35-.65-.7-.33-1.41-.69-2.13-1.04-.46-.22-.93-.45-1.4-.69-1.13-.53-2.27-1.09-3.44-1.68-.95-.47-1.91-.94-2.87-1.43-1.27-.65-2.55-1.3-3.85-1.96-.48-.26-.98-.51-1.47-.77-1-.51-1.99-1.04-3-1.57-.38-.19-.77-.39-1.15-.59-1.62-.86-3.26-1.74-4.9-2.64-1.14-.61-2.28-1.24-3.43-1.88-.89-.49-1.78-1-2.68-1.51-.51-.3-1.02-.57-1.53-.87-1.1-.62-2.22-1.27-3.33-1.92-.93-.55-1.85-1.1-2.76-1.65-6.6-3.9-13.12-8.05-19.31-12.39-.95-.64-1.87-1.31-2.8-1.98-.47-.33-.94-.68-1.43-1.04-.9-.64-1.79-1.31-2.68-1.98-.93-.7-1.85-1.41-2.76-2.11-.44-.36-.89-.69-1.32-1.04-2.63-2.08-5.16-4.2-7.57-6.36-.39-.35-.8-.7-1.19-1.07-3.42-3.12-6.59-6.32-9.4-9.55-.3-.32-.59-.65-.86-1-.66-.75-1.28-1.51-1.89-2.3-.28-.35-.58-.72-.86-1.11-.85-1.1-1.65-2.22-2.4-3.34-.25-.37-.5-.74-.74-1.11-.24-.38-.48-.75-.7-1.12-.24-.37-.47-.75-.68-1.12-.22-.37-.45-.74-.64-1.12-.42-.76-.83-1.51-1.18-2.25-.18-.37-.37-.75-.54-1.14-.17-.35-.34-.72-.49-1.1-.02-.02-.03-.02-.02-.04-.31-.7-.58-1.41-.85-2.11-.13-.36-.24-.71-.36-1.06-.29-.83-.52-1.65-.73-2.47-.1-.3-.16-.59-.23-.87-.07-.29-.13-.56-.19-.86-.07-.29-.13-.59-.17-.88-.19-1-.63-2-.7-3-.04-.39,0-3.63,0-3.63v-10.62C167.16-1.61,291.55-.33,339.87.13c-18.26,11.33-32.7,28.55-40.33,49.73Z"/><path class="cls-15" d="M1714.63,182.18l-66.61,135.63h-1004.15c25.22-20.52,41.31-51.65,41.31-86.49v-33.32c0-3.56-.2-7.23-.55-10.83-.17-1.78-.41-3.43-.66-4.99h1030.66Z"/><path class="cls-11" d="M758.33,203.62c13.84,0,20.96,8.28,20.96,22.77v2.85h-13.45v-3.75c0-6.47-2.59-8.93-7.12-8.93s-7.11,2.46-7.11,8.93,2.85,11.51,12.16,19.66c11.9,10.48,15.65,17.98,15.65,28.33,0,14.49-7.24,22.77-21.21,22.77s-21.21-8.28-21.21-22.77v-5.56h13.45v6.47c0,6.47,2.85,8.8,7.37,8.8s7.37-2.33,7.37-8.8-2.85-11.51-12.16-19.66c-11.9-10.48-15.65-17.98-15.65-28.33,0-14.49,7.12-22.77,20.96-22.77Z"/><path class="cls-11" d="M809.68,226.39c0-14.49,7.63-22.77,21.6-22.77s21.6,8.28,21.6,22.77v47.09c0,14.49-7.63,22.77-21.6,22.77s-21.6-8.28-21.6-22.77v-47.09ZM823.92,274.38c0,6.47,2.85,8.93,7.37,8.93s7.37-2.46,7.37-8.93v-48.9c0-6.47-2.85-8.93-7.37-8.93s-7.37,2.46-7.37,8.93v48.9Z"/><path class="cls-11" d="M885.36,204.65h14.23v77.62h23.41v12.94h-37.64v-90.55Z"/><path class="cls-11" d="M966.08,204.65v69.86c0,6.47,2.85,8.8,7.37,8.8s7.37-2.33,7.37-8.8v-69.86h13.45v68.95c0,14.49-7.25,22.77-21.22,22.77s-21.21-8.28-21.21-22.77v-68.95h14.23Z"/><path class="cls-11" d="M1023.12,204.65h43.98v12.94h-14.88v77.62h-14.23v-77.62h-14.88v-12.94Z"/><path class="cls-11" d="M1096.6,204.65h14.23v90.55h-14.23v-90.55Z"/><path class="cls-11" d="M1143.29,226.39c0-14.49,7.63-22.77,21.6-22.77s21.6,8.28,21.6,22.77v47.09c0,14.49-7.63,22.77-21.6,22.77s-21.6-8.28-21.6-22.77v-47.09ZM1157.52,274.38c0,6.47,2.85,8.93,7.37,8.93s7.37-2.46,7.37-8.93v-48.9c0-6.47-2.85-8.93-7.37-8.93s-7.37,2.46-7.37,8.93v48.9Z"/><path class="cls-11" d="M1231.9,229.62h-.26v65.59h-12.81v-90.55h17.85l14.36,54.2h.26v-54.2h12.68v90.55h-14.62l-17.46-65.59Z"/><path class="cls-11" d="M1316.63,203.62c13.84,0,20.96,8.28,20.96,22.77v2.85h-13.45v-3.75c0-6.47-2.59-8.93-7.11-8.93s-7.11,2.46-7.11,8.93,2.84,11.51,12.16,19.66c11.9,10.48,15.65,17.98,15.65,28.33,0,14.49-7.24,22.77-21.21,22.77s-21.22-8.28-21.22-22.77v-5.56h13.45v6.47c0,6.47,2.84,8.8,7.37,8.8s7.37-2.33,7.37-8.8-2.85-11.51-12.16-19.66c-11.9-10.48-15.65-17.98-15.65-28.33,0-14.49,7.11-22.77,20.96-22.77Z"/><path class="cls-11" d="M1412.48,204.65h14.23v77.62h23.41v12.94h-37.65v-90.55Z"/><path class="cls-11" d="M1469.01,204.65h43.98v12.94h-14.88v77.62h-14.23v-77.62h-14.88v-12.94Z"/><path class="cls-11" d="M1542.48,204.65h22.51c14.23,0,21.21,7.89,21.21,22.38v45.79c0,14.49-6.99,22.38-21.21,22.38h-22.51v-90.55ZM1556.71,217.59v64.68h8.02c4.53,0,7.25-2.33,7.25-8.8v-47.09c0-6.47-2.72-8.8-7.25-8.8h-8.02Z"/><path class="cls-11" d="M1630.96,281.49v13.71h-13.71v-13.71h13.71Z"/><path class="cls-14" d="M770.15,2.96c21.51,0,32.56,12.86,32.56,35.38v4.42h-20.9v-5.83c0-10.05-4.02-13.87-11.06-13.87s-11.06,3.82-11.06,13.87,4.42,17.89,18.89,30.55c18.49,16.28,24.32,27.94,24.32,44.02,0,22.51-11.26,35.38-32.97,35.38s-32.97-12.86-32.97-35.38v-8.64h20.9v10.05c0,10.05,4.42,13.67,11.46,13.67s11.46-3.62,11.46-13.67-4.42-17.89-18.89-30.55c-18.49-16.28-24.32-27.94-24.32-44.02,0-22.51,11.05-35.38,32.56-35.38Z"/><path class="cls-14" d="M885.13,39.34v18.29c0,22.51-10.85,34.78-32.97,34.78h-10.45v52.87h-22.11V4.56h32.56c22.11,0,32.97,12.26,32.97,34.77ZM841.71,24.66v47.64h10.45c7.04,0,10.85-3.22,10.85-13.27v-21.11c0-10.05-3.82-13.27-10.85-13.27h-10.45Z"/><path class="cls-14" d="M921.5,63.86h30.35v20.1h-30.35v41.21h38.19v20.1h-60.3V4.56h60.3v20.1h-38.19v39.2Z"/><path class="cls-14" d="M999.49,63.86h30.35v20.1h-30.35v41.21h38.19v20.1h-60.3V4.56h60.3v20.1h-38.19v39.2Z"/><path class="cls-14" d="M1055.36,4.56h34.98c22.11,0,32.97,12.26,32.97,34.77v71.16c0,22.51-10.85,34.77-32.97,34.77h-34.98V4.56ZM1077.47,24.66v100.51h12.46c7.04,0,11.26-3.62,11.26-13.67V38.33c0-10.05-4.22-13.67-11.26-13.67h-12.46Z"/><path class="cls-14" d="M1159.08,98.64l-27.94-94.07h23.12l16.68,64.12h.4l16.68-64.12h21.1l-27.94,94.07v46.63h-22.11v-46.63Z"/><path class="cls-14" d="M1286.91,2.96c21.51,0,32.57,12.86,32.57,35.38v4.42h-20.91v-5.83c0-10.05-4.02-13.87-11.05-13.87s-11.06,3.82-11.06,13.87,4.42,17.89,18.89,30.55c18.49,16.28,24.32,27.94,24.32,44.02,0,22.51-11.26,35.38-32.97,35.38s-32.97-12.86-32.97-35.38v-8.64h20.91v10.05c0,10.05,4.42,13.67,11.46,13.67s11.46-3.62,11.46-13.67-4.42-17.89-18.89-30.55c-18.49-16.28-24.32-27.94-24.32-44.02,0-22.51,11.06-35.38,32.56-35.38Z"/><path class="cls-14" d="M1329.92,4.56h68.34v20.1h-23.12v120.61h-22.11V24.66h-23.12V4.56Z"/><path class="cls-14" d="M1458.15,145.27c-1.2-3.62-2.01-5.83-2.01-17.29v-22.11c0-13.06-4.42-17.89-14.47-17.89h-7.64v57.29h-22.11V4.56h33.37c22.92,0,32.77,10.65,32.77,32.36v11.06c0,14.47-4.62,23.72-14.47,28.34v.4c11.06,4.62,14.67,15.08,14.67,29.75v21.71c0,6.84.2,11.86,2.41,17.09h-22.51ZM1434.03,24.66v43.22h8.64c8.24,0,13.27-3.62,13.27-14.88v-13.87c0-10.05-3.42-14.47-11.26-14.47h-10.65Z"/><path class="cls-14" d="M1518.85,63.86h30.35v20.1h-30.35v41.21h38.19v20.1h-60.3V4.56h60.3v20.1h-38.19v39.2Z"/><path class="cls-14" d="M1596.84,63.86h30.35v20.1h-30.35v41.21h38.19v20.1h-60.3V4.56h60.3v20.1h-38.19v39.2Z"/><path class="cls-14" d="M1646.28,4.56h68.34v20.1h-23.12v120.61h-22.11V24.66h-23.12V4.56Z"/><path class="cls-6" d="M309.72,63.7c-.07.23-.13.47-.19.7-.78,2.97-1.37,5.97-1.83,9-.11.72-1.03,9.12-1.03,12.62v22.65c0,47.31,38.5,85.81,85.81,85.81h194.39v33.12c35.13-1.52,65.76-24.21,77.36-57.63-11.69-33.52-43.52-57.69-80.98-57.69l-194.39-.05c-33.35-1.01-63.33-19.54-79.14-48.54Z"/><path class="cls-5" d="M586.87,235.08l-7.47.12h-186.92c-46.1.01-83.83,36.56-85.73,82.21h276.39c47.37,0,85.93-38.55,85.93-85.93v-33.38c0-2.82-.15-5.6-.43-8.35-.19-2.03-.53-4.02-.88-6.02-.1-.62-.16-1.26-.27-1.86-14.78,31.21-45.68,51.82-80.61,53.2Z"/><path class="cls-3" d="M313.09,53.55c13.38,30.33,42.75,50.1,75.77,51.19v-22.35h194.39c46.09,0,83.83-36.55,85.73-82.19h-276.51c-35.82,0-66.55,22.08-79.39,53.35Z"/><g class="cls-13"><path class="cls-4" d="M309.54,68.52c.06-.23.12-.46.19-.7,15.8,28.99,45.78,47.52,79.14,48.53l194.39.05c36.68,0,67.96,23.19,80.21,55.63.26-.68.52-1.37.76-2.07-11.69-33.52-43.52-57.69-80.98-57.69l-194.39-.05c-33.35-1.01-63.33-19.54-79.14-48.54-.07.23-.13.47-.19.7-.78,2.97-1.37,5.97-1.83,9-.11.72-1.03,9.12-1.03,12.62v4.13c0-3.5.93-11.9,1.03-12.63.46-3.02,1.05-6.02,1.83-9Z"/><path class="cls-2" d="M392.48,4.33h276.23c.12-1.37.21-2.74.27-4.13h-276.51c-35.82,0-66.55,22.08-79.39,53.35.3.66.64,1.29.95,1.95,13.34-30.1,43.46-51.17,78.44-51.17Z"/><path class="cls-1" d="M668.63,189.75c-.19-2.03-.53-4.02-.88-6.02-.1-.62-.16-1.26-.27-1.86-14.78,31.21-45.68,51.82-80.61,53.2l-7.47.12h-186.92c-46.1.01-83.83,36.56-85.73,82.21h.27c3.92-43.71,40.75-78.07,85.46-78.07h186.92s7.47-.13,7.47-.13c34.92-1.39,65.83-22,80.61-53.21.11.61.17,1.23.27,1.86.35,2,.68,4,.88,6.02.28,2.75.43,5.53.43,8.35v-4.12c0-2.82-.15-5.6-.43-8.35Z"/></g><g class="cls-8"><path class="cls-15" d="M310.14,63.92c-.07.23-.13.47-.19.7-.78,2.96-1.37,5.96-1.83,8.97-.11.72-1.03,9.1-1.03,12.59v22.6c0,47.2,38.41,85.61,85.61,85.61h193.94v33.04c35.05-1.52,65.61-24.15,77.18-57.49-11.66-33.44-43.42-57.55-80.79-57.55l-193.94-.05c-33.28-1.01-63.19-19.49-78.96-48.42Z"/><path class="cls-15" d="M586.64,234.9l-7.45.12h-186.49c-45.99.01-83.63,36.48-85.53,82.02h275.75c47.27,0,85.73-38.46,85.73-85.74v-33.3c0-2.81-.15-5.58-.43-8.33-.19-2.02-.53-4.01-.88-6-.1-.62-.16-1.25-.27-1.85-14.74,31.13-45.58,51.7-80.42,53.08Z"/><path class="cls-15" d="M313.5,53.8c13.35,30.26,42.65,49.99,75.6,51.07v-22.29h193.94c45.99,0,83.63-36.46,85.53-82h-275.87c-35.73,0-66.39,22.03-79.2,53.22Z"/><g class="cls-13"><path class="cls-15" d="M309.95,68.73c.06-.23.12-.46.19-.7,15.77,28.93,45.68,47.41,78.96,48.42l193.94.05c36.59,0,67.81,23.14,80.03,55.5.26-.68.52-1.37.76-2.06-11.66-33.44-43.42-57.55-80.79-57.55l-193.94-.05c-33.28-1.01-63.19-19.49-78.96-48.42-.07.23-.13.47-.19.7-.78,2.96-1.37,5.96-1.83,8.97-.11.72-1.03,9.1-1.03,12.59v4.12c0-3.49.92-11.87,1.03-12.6.46-3.01,1.04-6,1.83-8.97Z"/><path class="cls-15" d="M392.7,4.69h275.59c.12-1.37.21-2.74.27-4.12h-275.87c-35.73,0-66.39,22.03-79.2,53.22.29.66.64,1.29.94,1.94,13.31-30.03,43.36-51.05,78.26-51.05Z"/><path class="cls-15" d="M668.21,189.68c-.19-2.02-.53-4.01-.88-6-.1-.62-.16-1.25-.27-1.85-14.74,31.13-45.58,51.7-80.42,53.08l-7.45.12h-186.49c-45.99.01-83.63,36.48-85.53,82.02h.27c3.92-43.6,40.66-77.89,85.26-77.89h186.49s7.45-.13,7.45-.13c34.84-1.39,65.68-21.95,80.42-53.09.11.61.17,1.23.27,1.85.35,1.99.68,3.99.88,6,.27,2.74.43,5.52.43,8.33v-4.11c0-2.81-.15-5.58-.43-8.33Z"/></g></g><path class="cls-15" d="M722.9,367.73h3.44l-2.33,11.16h-10.6l2.05-10.04,8.74-11.9h5.12l-6.42,10.79Z"/><path class="cls-15" d="M759.45,356.94l-1.3,65.1h-10.42l.56-12.65h-14.32l-4.84,12.65h-10.32l26.32-65.1h14.32ZM748.66,400.19l1.3-32.27-12.46,32.27h11.16Z"/><path class="cls-15" d="M805.39,366.33h-12.28l1.95-9.39h35.43l-1.95,9.39h-12.37l-11.81,55.71h-10.79l11.81-55.71Z"/><path class="cls-15" d="M853.1,374.8l-2.05,9.86c-1.02-.37-2.6-.65-4.18-.65-5.3,0-8.84,3.25-10.6,9.67l-6.04,28.37h-10.42l9.95-47.25h9.11l-1.49,7.72c2.6-5.77,6.32-8.65,11.16-8.65,2.14,0,3.72.37,4.56.93Z"/><path class="cls-15" d="M892.91,374.8l-9.95,47.25h-9.11l1.12-5.58c-2.6,4.18-6.51,6.51-11.25,6.51-7.07,0-10.97-3.44-10.97-10.32,0-1.58.19-3.44.65-5.39l6.88-32.46h10.51l-6.7,31.53c-.28,1.12-.46,2.23-.46,3.07,0,3.16,1.49,4.65,4.93,4.65,3.26,0,5.77-2.14,7.07-6.98l6.88-32.27h10.42Z"/><path class="cls-15" d="M894.21,410.69c0-1.3.19-2.7.37-3.63h9.95c-.19.93-.37,1.67-.37,2.51,0,3.53,2.42,4.93,5.58,4.93,4.19,0,5.77-2.51,5.77-5.3,0-4-3.44-5.49-6.7-7.25-5.21-2.79-9.39-5.67-9.39-13.3,0-8.74,5.39-14.79,15.35-14.79,8,0,14.69,4,14.69,11.9,0,.93-.09,1.86-.19,2.79h-9.67c.09-.84.19-1.49.19-2.14,0-2.79-1.86-4.18-4.84-4.18-3.91,0-5.49,2.42-5.49,5.39,0,3.53,2.98,5.02,6.97,7.25,4.74,2.7,9.39,5.58,9.39,13.11,0,8.46-5.67,14.97-16.18,14.97-8.09,0-15.44-3.91-15.44-12.28Z"/><path class="cls-15" d="M947.77,408.37c-.19.93-.19,1.39-.19,1.95,0,2.51,1.58,3.63,4.93,3.63.93,0,1.95-.09,2.98-.47l-1.95,8.93c-1.3.37-2.7.56-4.18.56-7.53,0-12.56-3.16-12.56-10.04,0-1.21.19-2.51.46-4l5.58-25.67h-6.23l1.77-8.46h6.6l3.53-12.65h9.02l-2.7,12.65h8.65l-1.77,8.46h-8.65l-5.3,25.11Z"/><path class="cls-15" d="M1000.88,387.07c0,1.49-.19,3.07-.56,4.74l-1.86,8.83h-22.69l-1.39,6.32c-.28.84-.28,1.58-.28,1.86,0,3.53,2.14,5.39,5.95,5.39s6.14-1.95,6.88-5.95l.28-1.67h10.04l-.46,2.23c-1.86,8.83-7.81,14.14-17.39,14.14-8.65,0-15.53-4.37-15.53-13.21,0-2.23.46-4.28.56-4.84l3.44-16.55c1.95-9.39,7.91-14.51,17.48-14.51,8.56,0,15.53,4.09,15.53,13.21ZM990,392.93l.65-3.26c.19-.56.28-1.02.28-1.77,0-3.72-2.32-5.39-5.77-5.39-3.72,0-5.86,1.95-6.79,5.86l-1.02,4.56h12.65Z"/><path class="cls-15" d="M1049.24,356.94l-11.16,52.73c-1.21,5.77-1.67,9.67-1.67,12.37h-9.49c-.09-.84,0-2.98.46-5.67-2.6,4.18-6.6,6.51-11.25,6.51-7.07,0-11.16-3.63-11.16-10.6,0-1.58.28-3.25.65-5.21l4.28-19.9c1.95-9.11,6.7-13.3,13.3-13.3,5.39,0,9.11,2.42,10.69,6.51l5.02-23.44h10.32ZM1028.22,406.97l3.16-14.88c.19-1.21.28-2.23.28-3.16,0-4.09-2.23-6.14-5.86-6.14-3.16,0-5.02,2.23-5.86,6.42l-3.63,17.3c-.19.93-.37,1.95-.37,2.79,0,3.07,1.58,4.74,5.12,4.74,3.16,0,5.86-2.14,7.16-7.07Z"/><path class="cls-15" d="M1077.88,356.94h30.41l-2.05,9.39h-19.53l-3.81,18.23h15.34l-2.05,9.39h-15.35l-5.95,28.09h-10.88l13.86-65.1Z"/><path class="cls-15" d="M1138.8,386.14c0,1.77-.19,3.81-.65,5.86l-3.72,17.67c-1.02,5.21-1.67,9.39-1.67,12.37h-9.39c-.09-.84,0-2.88.47-5.67-2.51,4.18-6.51,6.6-11.44,6.6-7.16,0-11.07-5.12-11.07-11.25,0-9.77,6.42-14.42,16.09-16.65,8.56-1.86,10.23-2.7,10.88-5.12l.19-.93c.19-.84.28-1.49.28-2.14,0-2.88-1.67-4.46-4.84-4.46-3.63,0-5.67,1.77-6.42,5.67l-.28,1.49h-9.77l.46-2.33c1.67-8.56,7.16-13.39,16.46-13.39,8.37,0,14.42,3.91,14.42,12.28ZM1124.66,407.16l1.58-7.53c-1.21.93-3.35,1.67-6.98,2.7-5.12,1.3-7.35,3.81-7.35,7.53,0,2.51,1.49,4.56,5.02,4.56s6.32-2.23,7.72-7.25Z"/><path class="cls-15" d="M1203.34,384.1c0,1.67-.28,3.44-.74,5.49l-6.88,32.46h-10.51l6.79-31.53c.28-1.3.37-2.42.37-3.26,0-2.98-1.4-4.46-4.56-4.46-2.88,0-5.21,2.05-6.51,6.51-.09.09-.09.19-.09.28l-6.88,32.46h-10.6l6.79-31.53c.28-1.3.37-2.42.37-3.26,0-2.98-1.3-4.46-4.46-4.46-2.98,0-5.39,2.14-6.7,6.98l-6.88,32.27h-10.51l10.04-47.25h9.11l-1.12,5.67c2.51-4.28,6.32-6.6,10.88-6.6,5.77,0,9.3,2.42,10.32,7.16,2.42-4.65,6.42-7.16,11.16-7.16,6.79,0,10.6,3.44,10.6,10.23Z"/><path class="cls-15" d="M1216.08,374.8h10.51l-10.04,47.25h-10.51l10.04-47.25ZM1219.98,357.03h10.23l-2.42,11.35h-10.23l2.42-11.35Z"/><path class="cls-15" d="M1241.37,356.94h10.51l-13.86,65.1h-10.51l13.86-65.1Z"/><path class="cls-15" d="M1291.22,374.8l-23.9,52.83c-3.07,6.79-7.35,9.77-13.76,9.77-3.53,0-6.51-.65-8.46-1.95l1.86-8.37c1.58.74,3.25,1.39,5.67,1.39s4.19-1.21,5.39-3.81l.93-1.77-2.88-48.08h10.14l.93,32.74,13.86-32.74h10.23Z"/><path class="cls-15" d="M1320.79,356.94h15.9c10.04,0,15.25,4.65,15.25,12.56,0,1.39-.19,2.79-.46,4.37l-.37,1.86c-1.49,7.44-4.46,10.42-10.88,12.46v.19c4.56,1.49,6.6,5.58,6.6,10.7,0,1.4-.19,2.98-.56,4.56l-.65,3.16c-2.42,11.16-7.63,15.25-19.16,15.25h-19.53l13.86-65.1ZM1326.56,412.65c5.49,0,7.35-1.95,8.46-7.25l.74-3.53c.28-1.49.46-2.7.46-3.81,0-3.53-1.77-5.02-6.51-5.02h-5.77l-4.19,19.62h6.79ZM1330.37,383.63c5.21,0,8.46-1.77,9.67-7.25l.56-2.42c.19-.93.37-1.86.37-2.51,0-3.53-2.14-5.11-6.14-5.11h-5.21l-3.63,17.3h4.37Z"/><path class="cls-15" d="M1393.61,374.8l-9.95,47.25h-9.11l1.12-5.58c-2.6,4.18-6.51,6.51-11.25,6.51-7.07,0-10.97-3.44-10.97-10.32,0-1.58.19-3.44.65-5.39l6.88-32.46h10.51l-6.7,31.53c-.28,1.12-.46,2.23-.46,3.07,0,3.16,1.49,4.65,4.93,4.65,3.26,0,5.77-2.14,7.07-6.98l6.88-32.27h10.42Z"/><path class="cls-15" d="M1394.91,410.69c0-1.3.19-2.7.37-3.63h9.95c-.19.93-.37,1.67-.37,2.51,0,3.53,2.42,4.93,5.58,4.93,4.19,0,5.77-2.51,5.77-5.3,0-4-3.44-5.49-6.7-7.25-5.21-2.79-9.39-5.67-9.39-13.3,0-8.74,5.39-14.79,15.35-14.79,8,0,14.69,4,14.69,11.9,0,.93-.09,1.86-.19,2.79h-9.67c.09-.84.19-1.49.19-2.14,0-2.79-1.86-4.18-4.84-4.18-3.91,0-5.49,2.42-5.49,5.39,0,3.53,2.98,5.02,6.97,7.25,4.74,2.7,9.39,5.58,9.39,13.11,0,8.46-5.67,14.97-16.18,14.97-8.09,0-15.44-3.91-15.44-12.28Z"/><path class="cls-15" d="M1442.44,374.8h10.51l-10.04,47.25h-10.51l10.04-47.25ZM1446.34,357.03h10.23l-2.42,11.35h-10.23l2.42-11.35Z"/><path class="cls-15" d="M1493.87,384.19c0,1.58-.19,3.44-.65,5.39l-6.88,32.46h-10.51l6.7-31.53c.28-1.12.46-2.23.46-3.07,0-3.16-1.49-4.65-4.93-4.65-3.25,0-5.77,2.14-7.07,6.98l-6.88,32.27h-10.42l9.95-47.25h9.11l-1.12,5.58c2.6-4.19,6.51-6.51,11.25-6.51,7.07,0,10.97,3.44,10.97,10.32Z"/><path class="cls-15" d="M1535.44,387.07c0,1.49-.19,3.07-.56,4.74l-1.86,8.83h-22.69l-1.39,6.32c-.28.84-.28,1.58-.28,1.86,0,3.53,2.14,5.39,5.95,5.39s6.14-1.95,6.88-5.95l.28-1.67h10.04l-.46,2.23c-1.86,8.83-7.81,14.14-17.39,14.14-8.65,0-15.53-4.37-15.53-13.21,0-2.23.46-4.28.56-4.84l3.44-16.55c1.95-9.39,7.91-14.51,17.48-14.51,8.56,0,15.53,4.09,15.53,13.21ZM1524.56,392.93l.65-3.26c.19-.56.28-1.02.28-1.77,0-3.72-2.32-5.39-5.77-5.39-3.72,0-5.86,1.95-6.79,5.86l-1.02,4.56h12.65Z"/><path class="cls-15" d="M1538.41,410.69c0-1.3.19-2.7.37-3.63h9.95c-.19.93-.37,1.67-.37,2.51,0,3.53,2.42,4.93,5.58,4.93,4.19,0,5.77-2.51,5.77-5.3,0-4-3.44-5.49-6.7-7.25-5.21-2.79-9.39-5.67-9.39-13.3,0-8.74,5.39-14.79,15.35-14.79,8,0,14.69,4,14.69,11.9,0,.93-.09,1.86-.19,2.79h-9.67c.09-.84.19-1.49.19-2.14,0-2.79-1.86-4.18-4.84-4.18-3.91,0-5.49,2.42-5.49,5.39,0,3.53,2.98,5.02,6.97,7.25,4.74,2.7,9.39,5.58,9.39,13.11,0,8.46-5.67,14.97-16.18,14.97-8.09,0-15.44-3.91-15.44-12.28Z"/><path class="cls-15" d="M1576.35,410.69c0-1.3.19-2.7.37-3.63h9.95c-.19.93-.37,1.67-.37,2.51,0,3.53,2.42,4.93,5.58,4.93,4.19,0,5.77-2.51,5.77-5.3,0-4-3.44-5.49-6.7-7.25-5.21-2.79-9.39-5.67-9.39-13.3,0-8.74,5.39-14.79,15.35-14.79,8,0,14.69,4,14.69,11.9,0,.93-.09,1.86-.19,2.79h-9.67c.09-.84.19-1.49.19-2.14,0-2.79-1.86-4.18-4.84-4.18-3.91,0-5.49,2.42-5.49,5.39,0,3.53,2.98,5.02,6.97,7.25,4.74,2.7,9.39,5.58,9.39,13.11,0,8.46-5.67,14.97-16.18,14.97-8.09,0-15.44-3.91-15.44-12.28Z"/><path class="cls-15" d="M1628.34,368.1h-3.53l2.42-11.16h10.51l-1.95,10.04-8.74,11.9h-5.11l6.42-10.79Z"/></g></g></svg>